<svg width="512" height="512" viewBox="0 0 512 512" fill="none" xmlns="http://www.w3.org/2000/svg">
<g clip-path="url(#clip0_12_2)">
<path d="M512 256L511.921 285.438L511.684 301.386L511.289 314.446L510.736 325.909L510.026 336.297L509.156 345.886L508.129 354.845L506.943 363.282L505.599 371.275L504.096 378.879L502.433 386.138L500.611 393.084L498.63 399.742L496.488 406.134L494.186 412.277L491.722 418.183L489.096 423.865L486.308 429.333L483.356 434.593L480.24 439.655L476.958 444.522L473.509 449.2L469.891 453.694L466.103 458.007L462.143 462.143L458.007 466.103L453.694 469.891L449.2 473.509L444.522 476.958L439.655 480.24L434.593 483.356L429.333 486.308L423.865 489.096L418.183 491.722L412.277 494.186L406.134 496.488L399.742 498.63L393.084 500.611L386.138 502.433L378.879 504.096L371.275 505.599L363.282 506.943L354.845 508.129L345.886 509.156L336.297 510.026L325.909 510.736L314.446 511.289L301.386 511.684L285.438 511.921L256 512L226.562 511.921L210.614 511.684L197.554 511.289L186.091 510.736L175.703 510.026L166.114 509.156L157.155 508.129L148.718 506.943L140.725 505.599L133.121 504.096L125.862 502.433L118.916 500.611L112.258 498.63L105.866 496.488L99.7233 494.186L93.8169 491.722L88.1348 489.096L82.6674 486.308L77.4066 483.356L72.3455 480.24L67.4782 476.958L62.7997 473.509L58.3058 469.891L53.9927 466.103L49.8572 462.143L45.8966 458.007L42.1085 453.694L38.4908 449.2L35.0418 444.522L31.7598 439.655L28.6435 434.593L25.6918 429.333L22.9036 423.865L20.278 418.183L17.8144 412.277L15.512 406.134L13.3702 399.742L11.3887 393.084L9.56687 386.138L7.90447 378.879L6.40119 371.275L5.05674 363.282L3.87092 354.845L2.84354 345.886L1.97443 336.297L1.26352 325.909L0.710684 314.446L0.31584 301.386L0.0789648 285.438L0 256L0.0789648 226.562L0.31584 210.614L0.710684 197.554L1.26352 186.091L1.97443 175.703L2.84354 166.114L3.87092 157.155L5.05674 148.718L6.40119 140.725L7.90447 133.121L9.56687 125.862L11.3887 118.916L13.3702 112.258L15.512 105.866L17.8144 99.7233L20.278 93.8169L22.9036 88.1348L25.6918 82.6674L28.6435 77.4066L31.7598 72.3455L35.0418 67.4782L38.4908 62.7997L42.1085 58.3058L45.8966 53.9927L49.8572 49.8572L53.9927 45.8966L58.3058 42.1085L62.7997 38.4908L67.4782 35.0418L72.3455 31.7598L77.4066 28.6435L82.6674 25.6918L88.1348 22.9036L93.8169 20.278L99.7233 17.8144L105.866 15.512L112.258 13.3702L118.916 11.3887L125.862 9.56687L133.121 7.90447L140.725 6.40119L148.718 5.05674L157.155 3.87092L166.114 2.84354L175.703 1.97443L186.091 1.26352L197.554 0.710684L210.614 0.31584L226.562 0.0789648L256 0L285.438 0.0789648L301.386 0.31584L314.446 0.710684L325.909 1.26352L336.297 1.97443L345.886 2.84354L354.845 3.87092L363.282 5.05674L371.275 6.40119L378.879 7.90447L386.138 9.56687L393.084 11.3887L399.742 13.3702L406.134 15.512L412.277 17.8144L418.183 20.278L423.865 22.9036L429.333 25.6918L434.593 28.6435L439.655 31.7598L444.522 35.0418L449.2 38.4908L453.694 42.1085L458.007 45.8966L462.143 49.8572L466.103 53.9927L469.891 58.3058L473.509 62.7997L476.958 67.4782L480.24 72.3455L483.356 77.4066L486.308 82.6674L489.096 88.1348L491.722 93.8169L494.186 99.7233L496.488 105.866L498.63 112.258L500.611 118.916L502.433 125.862L504.096 133.121L505.599 140.725L506.943 148.718L508.129 157.155L509.156 166.114L510.026 175.703L510.736 186.091L511.289 197.554L511.684 210.614L511.921 226.562L512 256Z" fill="#141414"/>
<path fill-rule="evenodd" clip-rule="evenodd" d="M428.995 246.935C429.727 247.238 436.206 249.911 437.628 251.788C441.343 256.686 436.596 261.529 434.216 262.669C428.708 265.306 398.09 276.116 380.125 283.252C361.383 290.697 358.039 288.16 352.06 303.159C350.731 306.492 341.944 328.537 335.775 344.944C327.536 366.854 326.269 368.27 324.814 369.897C321.112 374.041 316.017 371.355 315.343 370.998C311.396 368.918 302.016 340.175 290.474 312.253C283.551 295.502 284.512 292.838 274.215 288.874C260.629 283.645 205.974 264.256 202.723 261.11C194.078 252.748 207.867 247.673 209.008 247.251C281.19 220.681 281.674 220.14 283.657 215.974C288.217 206.394 311.206 145.343 313.425 142.528C314.015 141.781 321.464 134.43 327.275 145.646C328.536 148.08 336.501 169.671 347.581 196.717C355.046 214.94 352.718 218.096 366.871 223.509C371.831 225.405 414.558 241.748 428.995 246.935Z" fill="#F5F5F5"/>
<path fill-rule="evenodd" clip-rule="evenodd" d="M175.813 403.087C175.32 401.802 170.499 389.227 169.415 387.131C164.884 378.333 148.796 376.623 138.064 370.969C137.284 370.56 131.347 367.433 134.711 360.507C135.972 357.911 144.072 355.039 144.962 354.723C161.811 348.75 162.514 348.283 163.865 347.388C172.166 341.888 174.617 326.28 178.154 319.411C178.541 318.654 181.579 312.755 186.69 313.051C193.991 313.473 197.07 327.954 202.891 341.45C208.618 354.723 244.216 352.685 238.295 367.205C235.948 372.959 213.329 377.68 205.767 382.97C200.434 386.703 195.784 415.22 186.783 415.977C179.534 416.589 176.487 404.858 175.813 403.087Z" fill="#F5F5F5"/>
<path fill-rule="evenodd" clip-rule="evenodd" d="M100.08 156.836C98.3036 156.066 86.6656 152.994 89.4195 144.792C91.2415 139.36 113.166 133.995 118.461 131.013C127.745 125.784 129.277 110.449 135.236 100.013C135.636 99.3076 138.567 94.1714 144.836 96.6896C150.031 98.7762 155.752 120.3 158.793 125.12C166.774 137.772 195.758 136.12 194.358 148.424C193.472 156.237 166.6 161.624 161.976 165.649C155.197 171.545 150.947 196.411 144.275 198.401C135.32 201.074 133.414 190.74 126.307 173.67C122.302 164.045 120.735 164.722 100.08 156.836Z" fill="#F5F5F5"/>
</g>
<defs>
<clipPath id="clip0_12_2">
<rect width="512" height="512" fill="white"/>
</clipPath>
</defs>
</svg>
