<svg width="512" height="512" viewBox="0 0 512 512" fill="none" xmlns="http://www.w3.org/2000/svg">
<path d="M260.64 247.055V66L397.724 193.816L345.132 194.032L144.678 400.521H108.036L260.64 247.055Z" fill="black"/>
<path d="M339.097 400.521H163.862L251.156 311.071L339.097 400.521Z" fill="black"/>
<path d="M260.64 301.587L334.571 376.34V284.99L372.29 246.839H404.191L385.438 208.904H350.09L260.64 301.587Z" fill="black"/>
<path d="M377.125 262.143H391.474L416.476 300.725V446L349.227 377.889V290.594L377.125 262.143Z" fill="black"/>
<path d="M201.429 137.87L220.79 157.232L176.591 201.431L231.326 256.165L206.94 280.551L152.205 225.817L114.103 263.919L76 225.817L140.595 161.222L201.429 137.87Z" fill="black"/>
</svg>
