<svg width="512" height="512" viewBox="0 0 512 512" fill="none" xmlns="http://www.w3.org/2000/svg">
<path d="M512 256L511.921 285.438L511.684 301.386L511.289 314.446L510.736 325.909L510.026 336.297L509.156 345.886L508.129 354.845L506.943 363.282L505.599 371.275L504.096 378.879L502.433 386.138L500.611 393.084L498.63 399.742L496.488 406.134L494.186 412.277L491.722 418.183L489.096 423.865L486.308 429.333L483.356 434.593L480.24 439.655L476.958 444.522L473.509 449.2L469.891 453.694L466.103 458.007L462.143 462.143L458.007 466.103L453.694 469.891L449.2 473.509L444.522 476.958L439.655 480.24L434.593 483.356L429.333 486.308L423.865 489.096L418.183 491.722L412.277 494.186L406.134 496.488L399.742 498.63L393.084 500.611L386.138 502.433L378.879 504.096L371.275 505.599L363.282 506.943L354.845 508.129L345.886 509.156L336.297 510.026L325.909 510.736L314.446 511.289L301.386 511.684L285.438 511.921L256 512L226.562 511.921L210.614 511.684L197.554 511.289L186.091 510.736L175.703 510.026L166.114 509.156L157.155 508.129L148.718 506.943L140.725 505.599L133.121 504.096L125.862 502.433L118.916 500.611L112.258 498.63L105.866 496.488L99.7233 494.186L93.8169 491.722L88.1348 489.096L82.6674 486.308L77.4066 483.356L72.3455 480.24L67.4782 476.958L62.7997 473.509L58.3058 469.891L53.9927 466.103L49.8572 462.143L45.8966 458.007L42.1085 453.694L38.4908 449.2L35.0418 444.522L31.7598 439.655L28.6435 434.593L25.6918 429.333L22.9036 423.865L20.278 418.183L17.8144 412.277L15.512 406.134L13.3702 399.742L11.3887 393.084L9.56687 386.138L7.90447 378.879L6.40119 371.275L5.05674 363.282L3.87092 354.845L2.84354 345.886L1.97443 336.297L1.26352 325.909L0.710684 314.446L0.31584 301.386L0.0789648 285.438L0 256L0.0789648 226.562L0.31584 210.614L0.710684 197.554L1.26352 186.091L1.97443 175.703L2.84354 166.114L3.87092 157.155L5.05674 148.718L6.40119 140.725L7.90447 133.121L9.56687 125.862L11.3887 118.916L13.3702 112.258L15.512 105.866L17.8144 99.7233L20.278 93.8169L22.9036 88.1348L25.6918 82.6674L28.6435 77.4066L31.7598 72.3455L35.0418 67.4782L38.4908 62.7997L42.1085 58.3058L45.8966 53.9927L49.8572 49.8572L53.9927 45.8966L58.3058 42.1085L62.7997 38.4908L67.4782 35.0418L72.3455 31.7598L77.4066 28.6435L82.6674 25.6918L88.1348 22.9036L93.8169 20.278L99.7233 17.8144L105.866 15.512L112.258 13.3702L118.916 11.3887L125.862 9.56687L133.121 7.90447L140.725 6.40119L148.718 5.05674L157.155 3.87092L166.114 2.84354L175.703 1.97443L186.091 1.26352L197.554 0.710684L210.614 0.31584L226.562 0.0789648L256 0L285.438 0.0789648L301.386 0.31584L314.446 0.710684L325.909 1.26352L336.297 1.97443L345.886 2.84354L354.845 3.87092L363.282 5.05674L371.275 6.40119L378.879 7.90447L386.138 9.56687L393.084 11.3887L399.742 13.3702L406.134 15.512L412.277 17.8144L418.183 20.278L423.865 22.9036L429.333 25.6918L434.593 28.6435L439.655 31.7598L444.522 35.0418L449.2 38.4908L453.694 42.1085L458.007 45.8966L462.143 49.8572L466.103 53.9927L469.891 58.3058L473.509 62.7997L476.958 67.4782L480.24 72.3455L483.356 77.4066L486.308 82.6674L489.096 88.1348L491.722 93.8169L494.186 99.7233L496.488 105.866L498.63 112.258L500.611 118.916L502.433 125.862L504.096 133.121L505.599 140.725L506.943 148.718L508.129 157.155L509.156 166.114L510.026 175.703L510.736 186.091L511.289 197.554L511.684 210.614L511.921 226.562L512 256Z" fill="black"/>
<path d="M260.64 247.055V66L397.724 193.816L345.132 194.032L144.678 400.521H108.036L260.64 247.055Z" fill="white"/>
<path d="M339.097 400.521H163.862L251.156 311.071L339.097 400.521Z" fill="white"/>
<path d="M260.64 301.587L334.571 376.34V284.99L372.29 246.839H404.191L385.438 208.904H350.09L260.64 301.587Z" fill="white"/>
<path d="M377.125 262.143H391.474L416.476 300.725V446L349.227 377.889V290.594L377.125 262.143Z" fill="white"/>
<path d="M201.429 137.87L220.79 157.232L176.591 201.431L231.326 256.165L206.94 280.551L152.205 225.817L114.103 263.919L76 225.817L140.595 161.222L201.429 137.87Z" fill="white"/>
</svg>
